<svg width="161" height="44" viewBox="0 0 161 44" fill="none" xmlns="http://www.w3.org/2000/svg">
<path d="M0 0.00219727H19.393C24.3155 0.00219727 28.1347 1.29309 30.893 3.87487C33.6301 6.45666 35.0092 9.94841 35.0092 14.3501C35.0092 18.7095 33.6301 22.1801 30.893 24.7619C28.1559 27.3437 24.3155 28.6346 19.393 28.6346H8.35978V44.0195H0V0.0233594L0 0.00219727ZM8.35978 21.4395H19.0111C21.4511 21.4395 23.3183 20.8258 24.6125 19.6195C25.9068 18.4133 26.5646 16.6357 26.5646 14.329C26.5646 12.0223 25.9068 10.2447 24.6125 9.01728C23.3183 7.78987 21.4511 7.15501 19.0111 7.15501H8.35978V21.4395ZM78.845 0.00219727V7.47244H56.036V17.8631H76.7869V25.037H56.036V43.9983H47.6762V0.00219727H78.845ZM99.2565 43.9983H90.8967V0.00219727H99.2565V43.9983ZM141.48 20.9527L148.842 0.00219727H160.979V43.9983H152.98V30.5815C152.98 22.3494 153.065 15.0697 153.234 8.76333C152.322 11.853 151.219 15.239 149.882 18.9L140.97 43.9983H134.096L125.121 18.9C123.551 14.329 122.447 10.9854 121.832 8.8903C122.002 15.1543 122.087 22.3918 122.087 30.5815V43.9983H114.024V0.00219727H126.161L133.778 21.376C134.266 22.815 135.539 26.7935 137.554 33.3114C138.87 28.7404 140.185 24.6138 141.458 20.9527H141.48Z" fill="white"/>
</svg>
